<?xml version="1.0" encoding="UTF-8"?>
<svg width="300px" height="67px" viewBox="0 0 300 67" version="1.1" xmlns="http://www.w3.org/2000/svg" xmlns:xlink="http://www.w3.org/1999/xlink">
    <title>Group 66</title>
    <defs>
        <polygon id="path-1" points="0 0 43.8990478 0 43.8990478 65.5496508 0 65.5496508"></polygon>
        <polygon id="path-3" points="0 65.5508724 300 65.5508724 300 0 0 0"></polygon>
    </defs>
    <g id="Symbols" stroke="none" stroke-width="1" fill="none" fill-rule="evenodd">
        <g id="Group-66" transform="translate(0.000000, 0.563136)">
            <g id="Group-3" transform="translate(69.269699, 0.000000)">
                <mask id="mask-2" fill="white">
                    <use xlink:href="#path-1"></use>
                </mask>
                <g id="Clip-2"></g>
                <path d="M23.9762334,-0.00147029994 C24.7211854,0.0867476965 25.4612364,0.170064693 26.2061884,0.25338169 C28.7841143,0.537639678 31.2934262,1.08655166 33.6606091,2.17947461 C36.6845259,3.58116056 38.8899758,5.81111547 40.2573548,8.84973535 C41.7717637,12.2118212 42.1540417,15.7797491 42.2030517,19.4603999 L26.7845063,19.4603999 C26.7305953,18.436091 26.7747043,17.411782 26.5933673,16.431582 C26.4071293,15.4121741 26.1032674,14.3878651 25.6817814,13.4321702 C24.2212834,10.1730053 19.5457296,10.8444423 18.0852317,12.8244462 C16.0856238,15.5494021 16.4384957,19.6123309 18.9772136,21.8520878 C20.7954846,23.4498138 22.9274195,24.4937267 25.1328694,25.4151147 C27.5833693,26.4443246 30.0681762,27.3902176 32.4696661,28.5223486 C36.179723,30.2720055 39.3506698,32.6832974 41.5071097,36.2855322 C42.7764687,38.4125662 43.4626087,40.7111351 43.7174607,43.13713 C44.0654316,46.4404038 43.9380056,49.7240737 43.1195387,52.9587336 C41.6982487,58.5654774 38.0273999,62.0451872 32.6657061,63.8977651 C29.8476312,64.8681631 26.9364373,65.3043521 23.9713324,65.4660851 C20.0701366,65.6817291 16.1934458,65.4954911 12.3559629,64.7260341 C8.98897604,64.0496961 5.97976216,62.6676142 3.67629226,60.0161733 C1.69138734,57.7225054 0.622969378,55.0073515 0.289701391,52.0275436 C0.0740574001,50.1406587 0.0838593997,48.2292688 0.000542403065,46.3276808 C-0.00435859674,46.1757499 0.0250474021,46.0189179 0.0446514013,45.8375809 L15.9189898,45.8375809 C15.9778018,46.9648108 15.9974058,48.0773378 16.1003268,49.1702607 C16.2277528,50.5719467 16.5708227,51.9001176 17.5167157,53.0175456 C19.4624126,55.3357185 24.7701954,55.6983925 26.3532183,51.2139777 C27.3187153,48.4890218 26.9266353,45.0289159 24.0693524,42.867575 C22.1089525,41.377671 19.9133046,40.4072731 17.6882507,39.4564791 C15.4239888,38.4909822 13.1205189,37.6186042 10.91997,36.5305822 C7.5970921,34.8936483 4.85743321,32.5705744 2.96564728,29.3065085 C1.71099133,27.1451676 1.10326736,24.8073907 0.902326367,22.3568908 C0.613167379,18.9653989 0.794504371,15.6082141 1.74529833,12.3245442 C3.55376726,6.11497746 7.71471609,2.35591061 13.9438868,0.880709665 C15.5563158,0.49843168 17.2324577,0.371005685 18.8742926,0.121054695 C19.0703326,0.0965496961 19.2565706,0.0426386983 19.4477096,-0.00147029994 L23.9762334,-0.00147029994 Z" id="Fill-1" fill="#E31017" mask="url(#mask-2)"></path>
            </g>
            <path d="M0,1.19045285 C0.25485199,1.21005685 0.50970398,1.24436385 0.769456969,1.24436385 L15.7861204,1.24436385 L16.5163693,1.24436385 L16.5163693,64.5358753 C16.2811213,64.5505783 16.0311704,64.5750833 15.7861204,64.5750833 C10.7772986,64.5799843 5.77337777,64.5799843 0.769456969,64.5799843 C0.50970398,64.5799843 0.25485199,64.6093903 0,64.6289943 L0,1.19045285 Z" id="Fill-4" fill="#E31017"></path>
            <path d="M66.0081357,64.544207 C65.7924917,64.554009 65.6013527,64.573613 65.4053127,64.573613 C59.7642619,64.578514 54.1183101,64.568712 48.4723584,64.5884078 C47.9675554,64.593217 47.8107234,64.402078 47.6832974,63.951186 C44.1349735,51.3409135 40.5670457,38.7257401 36.9991178,26.1203686 C36.9403058,25.9145266 36.8765928,25.7184866 36.8128798,25.5175456 C36.7589688,25.5224466 36.7050578,25.5322486 36.6511468,25.5371496 L36.6511468,64.529504 L21.1688885,64.529504 L21.1688885,1.28210155 C21.3698294,1.26739855 21.5805724,1.24779455 21.7962164,1.24779455 C27.5352872,1.24289355 33.279259,1.25269555 39.0232307,1.23299502 C39.5280337,1.22819055 39.6946677,1.40952754 39.8171927,1.86532053 C43.2625956,14.485395 46.7227014,27.1054695 50.1828073,39.725544 C50.2318173,39.906881 50.3004313,40.078416 50.5062733,40.240149 C50.5209763,39.970594 50.5454813,39.710841 50.5454813,39.446187 C50.5454813,27.0074495 50.5454813,14.568712 50.5503823,2.12507351 C50.5503823,1.13507155 50.4572633,1.24779455 51.4521662,1.24779455 C56.0640071,1.24289355 60.6758479,1.24289355 65.2876887,1.24289355 L66.0081357,1.24289355 L66.0081357,64.544207 Z" id="Fill-6" fill="#E31017"></path>
            <path d="M141.880024,41.0301902 C140.360714,32.0662615 138.851206,23.1562439 137.336797,14.2364242 C137.268183,14.2413252 137.189767,14.2511272 137.121153,14.2560282 C135.611645,23.1611449 134.107038,32.0711625 132.592629,41.0301902 L141.880024,41.0301902 Z M111.596746,64.5451872 C111.974123,62.9768673 112.336797,61.4771613 112.69457,59.9774554 C115.679279,47.5877279 118.659086,35.1930994 121.638894,22.7984709 C123.310135,15.8439522 124.991178,8.88453244 126.647716,1.92511272 C126.770241,1.42030974 126.951578,1.22917075 127.50049,1.22917075 C133.979612,1.25367575 140.453833,1.25367575 146.932954,1.22917075 C147.516173,1.22917075 147.707312,1.42521074 147.834738,1.94961772 C150.015683,10.9282494 152.20643,19.90198 154.406979,28.8806116 C157.249559,40.4861792 160.09704,52.0966477 162.93962,63.7071163 C163.003333,63.9521662 163.047442,64.2070182 163.116056,64.5353852 C162.875907,64.5500882 162.670065,64.5745932 162.464223,64.5745932 C157.038816,64.5794942 151.613409,64.5696922 146.188002,64.5892962 C145.702803,64.5892962 145.516565,64.4765732 145.44305,63.9570672 C144.962752,60.6831994 144.433444,57.4093315 143.953146,54.1354636 C143.884532,53.6502647 143.737502,53.4738287 143.217996,53.4738287 C139.223682,53.4983337 135.234268,53.4934327 131.239953,53.4787297 C130.779259,53.4787297 130.597922,53.5865517 130.524407,54.0815526 C130.039208,57.4436385 129.500098,60.7861204 129.009998,64.1433052 C128.936483,64.6285042 128.647324,64.5794942 128.328759,64.5794942 L118.913938,64.5794942 C116.708489,64.5794942 114.503039,64.5794942 112.297589,64.5745932 C112.086846,64.5745932 111.876103,64.5598902 111.596746,64.5451872 L111.596746,64.5451872 Z" id="Fill-8" fill="#E31017"></path>
            <path d="M151.986375,1.25269555 L163.057734,1.25269555 L163.057734,48.1552637 C159.352578,32.4720643 155.681729,16.9064889 151.986375,1.25269555" id="Fill-10" fill="#5F5F5F"></path>
            <mask id="mask-4" fill="white">
                <use xlink:href="#path-3"></use>
            </mask>
            <g id="Clip-13"></g>
            <polygon id="Fill-12" fill="#5F5F5F" mask="url(#mask-4)" points="174.500098 64.4481474 175.563615 64.4481474 175.563615 1.24485395 174.500098 1.24485395"></polygon>
            <polygon id="Fill-14" fill="#5F5F5F" mask="url(#mask-4)" points="183.312096 12.5367575 184.576554 12.5367575 184.576554 1.48500294 183.312096 1.48500294"></polygon>
            <path d="M187.657322,12.5382278 L187.657322,1.48647324 L188.853166,1.48647324 L190.887081,6.66683003 C191.342874,7.84797099 191.921192,9.32317193 192.298569,10.5239169 L192.332876,10.5239169 C192.229955,8.77916095 192.180945,7.35297001 192.180945,5.43667908 L192.180945,1.48647324 L193.313076,1.48647324 L193.313076,12.5382278 L192.117232,12.5382278 L190.014703,7.22554401 C189.573613,6.10811606 189.098216,4.84855911 188.706136,3.46647716 L188.671829,3.46647716 C188.77475,4.9465791 188.804156,6.35316605 188.804156,8.72034895 L188.804156,12.5382278 L187.657322,12.5382278 Z" id="Fill-15" fill="#5F5F5F" mask="url(#mask-4)"></path>
            <path d="M196.116938,11.07822 C196.494315,11.3232699 197.151049,11.5242109 197.709763,11.5242109 C198.856597,11.5242109 199.542737,10.769457 199.542737,9.65202901 C199.542737,8.63752205 198.954617,8.01019408 198.082239,7.35346011 C197.214762,6.75063713 196.004215,5.71652617 196.004215,4.29033523 C196.004215,2.6141933 197.165752,1.38404234 198.92031,1.38404234 C199.611351,1.38404234 200.214174,1.59968634 200.478828,1.79572633 L200.170065,2.87884728 C199.890708,2.68280729 199.430014,2.5014703 198.856597,2.5014703 C197.773476,2.5014703 197.263772,3.31993727 197.263772,4.07469124 C197.263772,5.17741619 197.84209,5.60380318 198.886003,6.35365615 C200.214174,7.29464811 200.807195,8.30915507 200.807195,9.53930602 C200.807195,11.4359929 199.464321,12.6367379 197.709763,12.6367379 C196.950108,12.6367379 196.151245,12.3916879 195.837581,12.1613409 L196.116938,11.07822 Z" id="Fill-16" fill="#5F5F5F" mask="url(#mask-4)"></path>
            <polygon id="Fill-17" fill="#5F5F5F" mask="url(#mask-4)" points="204.659871 2.6166438 202.640659 2.6166438 202.640659 1.48941384 207.938639 1.48941384 207.938639 2.6166438 205.919428 2.6166438 205.919428 12.5362674 204.659871 12.5362674"></polygon>
            <polygon id="Fill-18" fill="#5F5F5F" mask="url(#mask-4)" points="210.252892 12.5367575 211.512449 12.5367575 211.512449 1.48500294 210.252892 1.48500294"></polygon>
            <polygon id="Fill-19" fill="#5F5F5F" mask="url(#mask-4)" points="215.888061 2.6166438 213.87375 2.6166438 213.87375 1.48941384 219.16683 1.48941384 219.16683 2.6166438 217.152519 2.6166438 217.152519 12.5362674 215.888061 12.5362674"></polygon>
            <path d="M222.725446,1.48696334 L222.725446,8.89727504 C222.725446,10.88218 223.38218,11.5536169 224.234954,11.5536169 C225.171045,11.5536169 225.759165,10.83317 225.759165,8.89727504 L225.759165,1.48696334 L227.023623,1.48696334 L227.023623,8.70123505 C227.023623,11.5732209 225.842482,12.6661439 224.200647,12.6661439 C222.544109,12.6661439 221.465889,11.5879239 221.465889,8.84826505 L221.465889,1.48696334 L222.725446,1.48696334 Z" id="Fill-20" fill="#5F5F5F" mask="url(#mask-4)"></path>
            <polygon id="Fill-21" fill="#5F5F5F" mask="url(#mask-4)" points="231.349735 2.6166438 229.330523 2.6166438 229.330523 1.48941384 234.628504 1.48941384 234.628504 2.6166438 232.609292 2.6166438 232.609292 12.5362674 231.349735 12.5362674"></polygon>
            <path d="M240.596452,12.5382278 L240.596452,1.48647324 L241.792296,1.48647324 L243.826211,6.66683003 C244.282004,7.84797099 244.860322,9.32317193 245.237698,10.5239169 L245.272005,10.5239169 C245.169084,8.77916095 245.120074,7.35297001 245.120074,5.43667908 L245.120074,1.48647324 L246.252205,1.48647324 L246.252205,12.5382278 L245.056361,12.5382278 L242.953833,7.22554401 C242.512743,6.10811606 242.037346,4.84855911 241.645266,3.46647716 L241.610959,3.46647716 C241.71388,4.9465791 241.743286,6.35316605 241.743286,8.72034895 L241.743286,12.5382278 L240.596452,12.5382278 Z" id="Fill-22" fill="#5F5F5F" mask="url(#mask-4)"></path>
            <path d="M252.908743,8.20672417 L252.335326,5.40825328 C252.173593,4.61919232 252.021662,3.69780435 251.894236,2.87933738 L251.825622,2.87933738 C251.693295,3.71740835 251.531562,4.66330131 251.384532,5.40825328 L250.811115,8.20672417 L252.908743,8.20672417 Z M250.629778,9.22613213 L249.894629,12.539208 L248.679181,12.539208 L251.203195,1.48745344 L252.59998,1.48745344 L255.055381,12.539208 L253.810527,12.539208 L253.075377,9.22613213 L250.629778,9.22613213 Z" id="Fill-23" fill="#5F5F5F" mask="url(#mask-4)"></path>
            <polygon id="Fill-24" fill="#5F5F5F" mask="url(#mask-4)" points="257.829347 2.6166438 255.810135 2.6166438 255.810135 1.48941384 261.108116 1.48941384 261.108116 2.6166438 259.088904 2.6166438 259.088904 12.5362674 257.829347 12.5362674"></polygon>
            <polygon id="Fill-25" fill="#5F5F5F" mask="url(#mask-4)" points="263.418937 12.5367575 264.678494 12.5367575 264.678494 1.48500294 263.418937 1.48500294"></polygon>
            <path d="M268.614487,7.01039012 C268.614487,9.29425603 269.060478,11.5536169 270.452362,11.5536169 C271.878553,11.5536169 272.25593,9.14722603 272.25593,6.97608312 C272.25593,4.9127622 271.878553,2.4671633 270.437659,2.4671633 C269.060478,2.4671633 268.614487,4.76573221 268.614487,7.01039012 M273.569398,6.92707312 C273.569398,11.07822 272.143207,12.6661439 270.369045,12.6661439 C268.53117,12.6661439 267.301019,10.720447 267.301019,6.99568712 C267.301019,3.33954127 268.614487,1.35463635 270.550382,1.35463635 C272.437267,1.35463635 273.569398,3.40815526 273.569398,6.92707312" id="Fill-26" fill="#5F5F5F" mask="url(#mask-4)"></path>
            <path d="M276.157616,12.5382278 L276.157616,1.48647324 L277.35346,1.48647324 L279.387375,6.66683003 C279.848069,7.84797099 280.421486,9.32317193 280.798863,10.5239169 L280.83317,10.5239169 C280.73515,8.77916095 280.681239,7.35297001 280.681239,5.43667908 L280.681239,1.48647324 L281.81337,1.48647324 L281.81337,12.5382278 L280.617526,12.5382278 L278.519898,7.22554401 C278.078808,6.10811606 277.59851,4.84855911 277.20643,3.46647716 L277.177024,3.46647716 C277.275044,4.9465791 277.30445,6.35316605 277.30445,8.72034895 L277.30445,12.5382278 L276.157616,12.5382278 Z" id="Fill-27" fill="#5F5F5F" mask="url(#mask-4)"></path>
            <path d="M288.469908,8.20672417 L287.896491,5.40825328 C287.734758,4.61919232 287.582827,3.69780435 287.455401,2.87933738 L287.386787,2.87933738 C287.25446,3.71740835 287.092727,4.66330131 286.945697,5.40825328 L286.37228,8.20672417 L288.469908,8.20672417 Z M286.190943,9.22613213 L285.450892,12.539208 L284.240345,12.539208 L286.76436,1.48745344 L288.161145,1.48745344 L290.616546,12.539208 L289.371692,12.539208 L288.636542,9.22613213 L286.190943,9.22613213 Z" id="Fill-28" fill="#5F5F5F" mask="url(#mask-4)"></path>
            <polygon id="Fill-29" fill="#5F5F5F" mask="url(#mask-4)" points="293.076358 1.48696334 294.340816 1.48696334 294.340816 11.4702999 297.457851 11.4702999 297.457851 12.5387179 293.076358 12.5387179"></polygon>
            <path d="M184.575083,28.892374 C184.75642,28.926681 184.937757,28.926681 185.05048,28.926681 C186.442364,28.926681 187.790139,27.9268771 187.790139,24.1727112 C187.790139,21.3840423 186.937365,19.8598314 185.168104,19.8598314 C184.967163,19.8598314 184.736816,19.8745344 184.575083,19.9235444 L184.575083,28.892374 Z M183.310625,19.0364634 C183.805626,18.8894334 184.379043,18.8257204 185.016173,18.8257204 C186.182611,18.8257204 187.001078,19.1197804 187.608802,19.6588904 C188.461576,20.4038424 189.098706,21.8300333 189.098706,24.1384042 C189.098706,26.6624191 188.476279,28.0396001 187.770535,28.794354 C187.050088,29.612821 186.001274,29.995099 184.722113,29.995099 C184.212409,29.995099 183.688002,29.960792 183.310625,29.877475 L183.310625,19.0364634 Z" id="Fill-30" fill="#5F5F5F" mask="url(#mask-4)"></path>
            <polygon id="Fill-31" fill="#5F5F5F" mask="url(#mask-4)" points="195.724368 24.6804548 192.955303 24.6804548 192.955303 28.8316016 196.101745 28.8316016 196.101745 29.9245246 191.690845 29.9245246 191.690845 18.87277 195.905705 18.87277 195.905705 19.975495 192.955303 19.975495 192.955303 23.6120369 195.724368 23.6120369"></polygon>
            <path d="M198.330229,28.4664772 C198.707606,28.7164282 199.36434,28.9124681 199.923054,28.9124681 C201.069888,28.9124681 201.756028,28.1577142 201.756028,27.0402862 C201.756028,26.0257793 201.167908,25.4033523 200.29553,24.7466183 C199.428053,24.1388943 198.217506,23.1047834 198.217506,21.6785924 C198.217506,20.0024505 199.379043,18.7722995 201.133601,18.7722995 C201.819741,18.7722995 202.427465,18.9879435 202.692119,19.1839835 L202.378455,20.2671045 C202.103999,20.0710645 201.643305,19.8897275 201.069888,19.8897275 C199.986767,19.8897275 199.477063,20.7130955 199.477063,21.4629484 C199.477063,22.5656734 200.05048,22.9920604 201.099294,23.7468144 C202.427465,24.6829053 203.020486,25.6974123 203.020486,26.9275632 C203.020486,28.8291511 201.677612,30.0249951 199.923054,30.0249951 C199.163399,30.0249951 198.359635,29.7799451 198.050872,29.5495981 L198.330229,28.4664772 Z" id="Fill-32" fill="#5F5F5F" mask="url(#mask-4)"></path>
            <path d="M208.986473,28.4664772 C209.36385,28.7164282 210.020584,28.9124681 210.579298,28.9124681 C211.726132,28.9124681 212.412272,28.1577142 212.412272,27.0402862 C212.412272,26.0257793 211.824152,25.4033523 210.951774,24.7466183 C210.084297,24.1388943 208.87375,23.1047834 208.87375,21.6785924 C208.87375,20.0024505 210.035287,18.7722995 211.789845,18.7722995 C212.480886,18.7722995 213.083709,18.9879435 213.348363,19.1839835 L213.0396,20.2671045 C212.760243,20.0710645 212.299549,19.8897275 211.726132,19.8897275 C210.643011,19.8897275 210.133307,20.7130955 210.133307,21.4629484 C210.133307,22.5656734 210.711625,22.9920604 211.755538,23.7468144 C213.083709,24.6829053 213.67673,25.6974123 213.67673,26.9275632 C213.67673,28.8291511 212.333856,30.0249951 210.579298,30.0249951 C209.819643,30.0249951 209.02078,29.7799451 208.707116,29.5495981 L208.986473,28.4664772 Z" id="Fill-33" fill="#5F5F5F" mask="url(#mask-4)"></path>
            <path d="M221.054695,29.7299549 C220.711625,29.9112919 220.167614,30.0289159 219.481474,30.0289159 C217.315232,30.0289159 215.771417,28.289061 215.771417,24.5299941 C215.771417,20.1730053 217.937659,18.7762203 219.677514,18.7762203 C220.348951,18.7762203 220.824348,18.9085473 221.054695,19.0555773 L220.775338,20.1190943 C220.515585,20.0063713 220.236228,19.8887473 219.65791,19.8887473 C218.48167,19.8887473 217.099588,21.0404823 217.099588,24.4172711 C217.099588,27.79406 218.349343,28.9114879 219.692217,28.9114879 C220.167614,28.9114879 220.594001,28.7987649 220.858655,28.661537 L221.054695,29.7299549 Z" id="Fill-34" fill="#5F5F5F" mask="url(#mask-4)"></path>
            <polygon id="Fill-35" fill="#5F5F5F" mask="url(#mask-4)" points="223.43168 29.9255048 224.696138 29.9255048 224.696138 18.8737502 223.43168 18.8737502"></polygon>
            <polygon id="Fill-36" fill="#5F5F5F" mask="url(#mask-4)" points="231.809449 24.6804548 229.040384 24.6804548 229.040384 28.8316016 232.186826 28.8316016 232.186826 29.9245246 227.775926 29.9245246 227.775926 18.87277 231.990786 18.87277 231.990786 19.975495 229.040384 19.975495 229.040384 23.6120369 231.809449 23.6120369"></polygon>
            <path d="M234.661831,29.9259949 L234.661831,18.8742403 L235.857675,18.8742403 L237.89159,24.0594981 C238.352284,25.2357381 238.925701,26.71584 239.303078,27.911684 L239.337385,27.911684 C239.239365,26.1718291 239.185454,24.7456381 239.185454,22.8293472 L239.185454,18.8742403 L240.317585,18.8742403 L240.317585,29.9259949 L239.121741,29.9259949 L237.024113,24.6133111 C236.583023,23.4958832 236.102725,22.2363262 235.710645,20.8591453 L235.681239,20.8591453 C235.779259,22.3343462 235.808665,23.7458342 235.808665,26.1081161 L235.808665,29.9259949 L234.661831,29.9259949 Z" id="Fill-37" fill="#5F5F5F" mask="url(#mask-4)"></path>
            <path d="M248.18761,29.7299549 C247.84454,29.9112919 247.300529,30.0289159 246.614389,30.0289159 C244.448147,30.0289159 242.909233,28.289061 242.909233,24.5299941 C242.909233,20.1730053 245.070574,18.7762203 246.810429,18.7762203 C247.481866,18.7762203 247.957263,18.9085473 248.18761,19.0555773 L247.908253,20.1190943 C247.6485,20.0063713 247.369143,19.8887473 246.795726,19.8887473 C245.614585,19.8887473 244.237404,21.0404823 244.237404,24.4172711 C244.237404,27.79406 245.482258,28.9114879 246.830033,28.9114879 C247.300529,28.9114879 247.731817,28.7987649 247.99157,28.661537 L248.18761,29.7299549 Z" id="Fill-38" fill="#5F5F5F" mask="url(#mask-4)"></path>
            <polygon id="Fill-39" fill="#5F5F5F" mask="url(#mask-4)" points="254.598608 24.6804548 251.829543 24.6804548 251.829543 28.8316016 254.975985 28.8316016 254.975985 29.9245246 250.565085 29.9245246 250.565085 18.87277 254.779945 18.87277 254.779945 19.975495 251.829543 19.975495 251.829543 23.6120369 254.598608 23.6120369"></polygon>
            <path d="M257.20447,28.4664772 C257.581847,28.7164282 258.238581,28.9124681 258.797295,28.9124681 C259.944129,28.9124681 260.630269,28.1577142 260.630269,27.0402862 C260.630269,26.0257793 260.042149,25.4033523 259.169771,24.7466183 C258.302294,24.1388943 257.091747,23.1047834 257.091747,21.6785924 C257.091747,20.0024505 258.253284,18.7722995 260.007842,18.7722995 C260.698883,18.7722995 261.301706,18.9879435 261.56636,19.1839835 L261.257597,20.2671045 C260.97824,20.0710645 260.517546,19.8897275 259.944129,19.8897275 C258.861008,19.8897275 258.351304,20.7130955 258.351304,21.4629484 C258.351304,22.5656734 258.929622,22.9920604 259.973535,23.7468144 C261.301706,24.6829053 261.894727,25.6974123 261.894727,26.9275632 C261.894727,28.8291511 260.551853,30.0249951 258.797295,30.0249951 C258.042541,30.0249951 257.238777,29.7799451 256.925113,29.5495981 L257.20447,28.4664772 Z" id="Fill-40" fill="#5F5F5F" mask="url(#mask-4)"></path>
            <path d="M186.920212,42.9876495 L186.346795,40.1842776 C186.180161,39.4001176 186.033131,38.4787297 185.900804,37.6553617 L185.837091,37.6553617 C185.704764,38.4934327 185.543031,39.4442266 185.3911,40.1842776 L184.822584,42.9876495 L186.920212,42.9876495 Z M184.641247,44.0021564 L183.901196,47.3152323 L182.690649,47.3152323 L185.214664,36.2634777 L186.611449,36.2634777 L189.06685,47.3152323 L187.821996,47.3152323 L187.081945,44.0021564 L184.641247,44.0021564 Z" id="Fill-41" fill="#5F5F5F" mask="url(#mask-4)"></path>
            <path d="M192.788179,41.7241717 C192.935209,41.7584787 193.067536,41.7731817 193.28318,41.7731817 C194.528034,41.7731817 195.361204,40.9547148 195.361204,39.3961968 C195.361204,38.2640659 194.885807,37.2495589 193.493923,37.2495589 C193.194962,37.2495589 192.954813,37.2838659 192.788179,37.3328759 L192.788179,41.7241717 Z M191.528622,36.4261909 C192.033425,36.2987649 192.641149,36.215448 193.361596,36.215448 C194.381004,36.215448 195.233778,36.4604979 195.807195,37.0339149 C196.346305,37.5583219 196.625662,38.3620859 196.625662,39.3128798 C196.625662,40.3322878 196.380612,41.0184278 195.954225,41.5771417 C195.346501,42.4005097 194.327093,42.8072927 193.346893,42.8072927 C193.131249,42.8072927 192.969516,42.8072927 192.788179,42.7925897 L192.788179,47.3162125 L191.528622,47.3162125 L191.528622,36.4261909 Z" id="Fill-42" fill="#5F5F5F" mask="url(#mask-4)"></path>
            <path d="M200.412174,41.7241717 C200.559204,41.7584787 200.691531,41.7731817 200.907175,41.7731817 C202.152029,41.7731817 202.985199,40.9547148 202.985199,39.3961968 C202.985199,38.2640659 202.509802,37.2495589 201.117918,37.2495589 C200.818957,37.2495589 200.578808,37.2838659 200.412174,37.3328759 L200.412174,41.7241717 Z M199.152617,36.4261909 C199.65742,36.2987649 200.265144,36.215448 200.985591,36.215448 C202.004999,36.215448 202.857773,36.4604979 203.43119,37.0339149 C203.9703,37.5583219 204.249657,38.3620859 204.249657,39.3128798 C204.249657,40.3322878 204.004607,41.0184278 203.57822,41.5771417 C202.970496,42.4005097 201.951088,42.8072927 200.970888,42.8072927 C200.755244,42.8072927 200.593511,42.8072927 200.412174,42.7925897 L200.412174,47.3162125 L199.152617,47.3162125 L199.152617,36.4261909 Z" id="Fill-43" fill="#5F5F5F" mask="url(#mask-4)"></path>
            <polygon id="Fill-44" fill="#5F5F5F" mask="url(#mask-4)" points="206.773182 36.2629876 208.03764 36.2629876 208.03764 46.2512252 211.154676 46.2512252 211.154676 47.3147422 206.773182 47.3147422"></polygon>
            <polygon id="Fill-45" fill="#5F5F5F" mask="url(#mask-4)" points="213.492452 47.3142521 214.75691 47.3142521 214.75691 36.2624975 213.492452 36.2624975"></polygon>
            <path d="M222.332876,41.7574985 C222.332876,39.6402666 221.955499,37.2485787 220.544011,37.2485787 C219.11782,37.2485787 218.67673,39.6549696 218.691433,41.7722015 C218.67673,43.9531464 219.083513,46.3350323 220.544011,46.3350323 C221.955499,46.3350323 222.332876,43.9531464 222.332876,41.7574985 L222.332876,41.7574985 Z M223.4307,48.8051362 C222.59753,48.4620663 221.480102,47.9425603 220.891982,47.6092923 C220.695942,47.5161733 220.563615,47.4475593 220.480298,47.4475593 C218.657126,47.4475593 217.382866,45.6292884 217.382866,41.7722015 C217.382866,38.0866497 218.691433,36.1360518 220.642031,36.1360518 C222.528916,36.1360518 223.646344,38.1993727 223.646344,41.7084885 C223.646344,44.7226034 222.925897,46.3791413 221.759459,46.9427563 L221.759459,47.0015683 C222.49951,47.3152323 223.249363,47.5651833 223.891394,47.7906293 L223.4307,48.8051362 Z" id="Fill-46" fill="#5F5F5F" mask="url(#mask-4)"></path>
            <path d="M227.480396,36.2629876 L227.480396,43.6782004 C227.480396,45.6582043 228.13713,46.3345422 228.989904,46.3345422 C229.925995,46.3345422 230.514115,45.6091943 230.514115,43.6782004 L230.514115,36.2629876 L231.778573,36.2629876 L231.778573,43.4821604 C231.778573,46.3492452 230.597432,47.4470692 228.955597,47.4470692 C227.299059,47.4470692 226.220839,46.3688492 226.220839,43.6291904 L226.220839,36.2629876 L227.480396,36.2629876 Z" id="Fill-47" fill="#5F5F5F" mask="url(#mask-4)"></path>
            <path d="M239.352088,33.9036463 L237.30347,35.6729073 L236.298765,35.6729073 L237.857283,33.9036463 L239.352088,33.9036463 Z M238.842384,42.068712 L236.073319,42.068712 L236.073319,46.2198589 L239.219761,46.2198589 L239.219761,47.3127818 L234.808861,47.3127818 L234.808861,36.2610272 L239.023721,36.2610272 L239.023721,37.3637522 L236.073319,37.3637522 L236.073319,41.0002941 L238.842384,41.0002941 L238.842384,42.068712 Z" id="Fill-48" fill="#5F5F5F" mask="url(#mask-4)"></path>
            <polygon id="Fill-49" fill="#5F5F5F" mask="url(#mask-4)" points="245.729759 42.068712 242.955793 42.068712 242.955793 46.2198589 246.107136 46.2198589 246.107136 47.3127818 241.696236 47.3127818 241.696236 36.2610272 245.911096 36.2610272 245.911096 37.3637522 242.955793 37.3637522 242.955793 41.0002941 245.729759 41.0002941"></polygon>
            <path d="M248.33562,45.8542443 C248.712997,46.1041953 249.36483,46.3002352 249.923544,46.3002352 C251.075279,46.3002352 251.761419,45.5454813 251.761419,44.4280533 C251.761419,43.4135464 251.173299,42.7911194 250.300921,42.1343854 C249.433444,41.5266614 248.217996,40.4925505 248.217996,39.0663595 C248.217996,37.3951186 249.384434,36.1649677 251.138992,36.1649677 C251.825132,36.1649677 252.432856,36.3757106 252.69751,36.5717506 L252.383846,37.6548716 C252.10939,37.4588316 251.648696,37.2823956 251.075279,37.2823956 C249.992158,37.2823956 249.482454,38.1008626 249.482454,38.8556165 C249.482454,39.9534405 250.055871,40.3798275 251.104685,41.1345815 C252.432856,42.0706724 253.025877,43.0900804 253.025877,44.3153303 C253.025877,46.2169183 251.678102,47.4127622 249.923544,47.4127622 C249.16879,47.4127622 248.365026,47.1726132 248.056263,46.9422662 L248.33562,45.8542443 Z" id="Fill-50" fill="#5F5F5F" mask="url(#mask-4)"></path>
            <polygon id="Fill-51" fill="#5F5F5F" mask="url(#mask-4)" points="185.426877 53.6556558 185.426877 58.0812586 187.671535 58.0812586 187.671535 53.6556558 189.823074 53.6556558 189.823074 64.7074103 187.671535 64.7074103 187.671535 60.0857675 185.426877 60.0857675 185.426877 64.7074103 183.280239 64.7074103 183.280239 53.6556558"></polygon>
            <path d="M196.346305,60.509704 L195.983631,58.1964321 C195.870908,57.5249951 195.723878,56.4271711 195.625858,55.6871202 L195.576848,55.6871202 C195.459224,56.4271711 195.297491,57.5691041 195.184768,58.2111351 L194.773084,60.509704 L196.346305,60.509704 Z M194.55744,62.1809449 L194.06734,64.7049598 L191.984415,64.7049598 L194.381004,53.6581063 L196.954029,53.6581063 L199.100667,64.7049598 L197.017742,64.7049598 L196.542345,62.1809449 L194.55744,62.1809449 Z" id="Fill-52" fill="#5F5F5F" mask="url(#mask-4)"></path>
            <path d="M203.217016,53.6556558 L203.217016,60.8356205 C203.217016,62.4578514 203.707116,62.9479514 204.26583,62.9479514 C204.888257,62.9479514 205.334248,62.5117624 205.334248,60.8356205 L205.334248,53.6556558 L207.480886,53.6556558 L207.480886,60.4582435 C207.480886,63.2959224 206.412468,64.8348363 204.280533,64.8348363 C201.972162,64.8348363 201.070378,63.2469124 201.070378,60.4778475 L201.070378,53.6556558 L203.217016,53.6556558 Z" id="Fill-53" fill="#5F5F5F" mask="url(#mask-4)"></path>
            <polygon id="Fill-54" fill="#5F5F5F" mask="url(#mask-4)" points="211.611939 55.63713 209.661341 55.63713 209.661341 53.6571261 215.723878 53.6571261 215.723878 55.63713 213.758577 55.63713 213.758577 64.7088806 211.611939 64.7088806"></polygon>
            <path d="M217.627916,62.5102921 C218.069006,62.7553421 218.82376,62.9366791 219.451088,62.9366791 C220.465595,62.9366791 220.955695,62.4073711 220.955695,61.6869241 C220.955695,60.8831602 220.465595,60.4910802 219.529504,59.8882572 C218.019996,58.9668692 217.446579,57.8004313 217.446579,56.8006273 C217.446579,55.0313664 218.62772,53.5561655 220.940992,53.5561655 C221.661439,53.5561655 222.347579,53.7522054 222.675946,53.9482454 L222.332876,55.8008234 C222.019212,55.6047834 221.548716,55.4283474 220.921388,55.4283474 C220.004901,55.4283474 219.563811,55.9821604 219.563811,56.5702803 C219.563811,57.2270143 219.887277,57.5700843 221.088022,58.2954323 C222.543619,59.1776122 223.08763,60.2950402 223.08763,61.4565771 C223.08763,63.4757891 221.597726,64.80396 219.431484,64.80396 C218.544403,64.80396 217.676926,64.573613 217.319153,64.36287 L217.627916,62.5102921 Z" id="Fill-55" fill="#5F5F5F" mask="url(#mask-4)"></path>
            <polygon id="Fill-56" fill="#5F5F5F" mask="url(#mask-4)" points="225.215644 60.9488336 228.47971 60.9488336 228.47971 59.4099196 225.215644 59.4099196"></polygon>
            <path d="M233.154283,62.9984317 C233.252303,63.0327387 233.418937,63.0327387 233.53166,63.0327387 C234.565771,63.0327387 235.467555,62.0182317 235.467555,58.9698098 C235.467555,56.7055479 234.879435,55.328367 233.58067,55.328367 C233.43364,55.328367 233.28661,55.328367 233.154283,55.372476 L233.154283,62.9984317 Z M231.007646,53.818859 C231.546756,53.6865321 232.335817,53.6032151 233.18859,53.6032151 C234.580474,53.6032151 235.550872,53.931582 236.251715,54.588316 C237.20741,55.44109 237.69751,56.9015879 237.69751,59.0482258 C237.69751,61.2781807 237.124093,62.8710057 236.153695,63.7188787 C235.418545,64.4442266 234.320721,64.7872966 232.776906,64.7872966 C232.10547,64.7872966 231.434033,64.7235836 231.007646,64.6745736 L231.007646,53.818859 Z" id="Fill-57" fill="#5F5F5F" mask="url(#mask-4)"></path>
            <polygon id="Fill-58" fill="#5F5F5F" mask="url(#mask-4)" points="244.810821 59.8539502 242.286807 59.8539502 242.286807 62.8337581 245.139188 62.8337581 245.139188 64.70594 240.140169 64.70594 240.140169 53.6541855 244.943148 53.6541855 244.943148 55.5214664 242.286807 55.5214664 242.286807 58.0650853 244.810821 58.0650853"></polygon>
            <polygon id="Fill-59" fill="#5F5F5F" mask="url(#mask-4)" points="247.221133 60.9488336 250.485199 60.9488336 250.485199 59.4099196 247.221133 59.4099196"></polygon>
            <polygon id="Fill-60" fill="#5F5F5F" mask="url(#mask-4)" points="253.009704 53.6556558 257.812684 53.6556558 257.812684 55.5229367 255.156342 55.5229367 255.156342 58.3606156 257.650951 58.3606156 257.650951 60.1445795 255.156342 60.1445795 255.156342 64.7074103 253.009704 64.7074103"></polygon>
            <path d="M262.665654,58.6380122 L263.043031,58.6380122 C263.979122,58.6380122 264.518232,57.8832582 264.518232,56.9128602 C264.518232,55.9816703 264.140855,55.3102333 263.175358,55.2759263 C262.994021,55.2759263 262.778377,55.2906293 262.665654,55.3396393 L262.665654,58.6380122 Z M260.519016,53.8203293 C261.190453,53.6831014 262.043227,53.6046854 262.861694,53.6046854 C264.042835,53.6046854 265.091649,53.7664183 265.816997,54.4280533 C266.488434,55.0308763 266.684474,55.7709273 266.684474,56.7168202 C266.684474,57.9028622 266.111057,58.9663791 264.978926,59.4907861 L264.978926,59.5250931 C265.73368,59.8191531 266.111057,60.5248971 266.3218,61.706038 C266.537444,62.936189 266.831504,64.2937659 267.027544,64.7054499 L264.782886,64.7054499 C264.650559,64.3966869 264.405509,63.279259 264.238875,62.063811 C264.042835,60.6866301 263.699765,60.2945501 262.974417,60.2945501 L262.665654,60.2945501 L262.665654,64.7054499 L260.519016,64.7054499 L260.519016,53.8203293 Z" id="Fill-61" fill="#5F5F5F" mask="url(#mask-4)"></path>
            <path d="M272.847971,60.509704 L272.485297,58.1964321 C272.372574,57.5249951 272.225544,56.4271711 272.127524,55.6871202 L272.078514,55.6871202 C271.96089,56.4271711 271.799157,57.5691041 271.681533,58.2111351 L271.27475,60.509704 L272.847971,60.509704 Z M271.059106,62.1809449 L270.569006,64.7049598 L268.486081,64.7049598 L270.88267,53.6581063 L273.455695,53.6581063 L275.602333,64.7049598 L273.519408,64.7049598 L273.044011,62.1809449 L271.059106,62.1809449 Z" id="Fill-62" fill="#5F5F5F" mask="url(#mask-4)"></path>
            <path d="M277.897471,64.7069202 L277.897471,53.6551657 L279.862772,53.6551657 L281.573221,57.9827485 C281.896687,58.8355224 282.440698,60.2617134 282.749461,61.2125074 L282.783768,61.2125074 C282.715154,60.0509704 282.568124,58.1297785 282.568124,56.0958636 L282.568124,53.6551657 L284.455009,53.6551657 L284.455009,64.7069202 L282.489708,64.7069202 L280.798863,60.5116644 C280.44109,59.5706724 279.931386,58.1787885 279.686336,57.1789845 L279.652029,57.1789845 C279.701039,58.2915115 279.784356,59.9970594 279.784356,62.2123113 L279.784356,64.7069202 L277.897471,64.7069202 Z" id="Fill-63" fill="#5F5F5F" mask="url(#mask-4)"></path>
            <path d="M292.734268,64.544207 C292.425505,64.686336 291.817781,64.80396 291.063027,64.80396 C288.240051,64.80396 286.897177,62.4759851 286.897177,59.3393452 C286.897177,55.1783964 289.210449,53.5561655 291.357087,53.5561655 C292.111841,53.5561655 292.636248,53.7031955 292.846991,53.8502254 L292.489218,55.6586944 C292.244168,55.5410704 291.964811,55.4430504 291.489414,55.4430504 C290.278867,55.4430504 289.176142,56.4869633 289.176142,59.2266222 C289.176142,61.8682611 290.175946,62.9023721 291.489414,62.9023721 C291.847187,62.9023721 292.258871,62.8190551 292.523525,62.7406391 L292.734268,64.544207 Z" id="Fill-64" fill="#5F5F5F" mask="url(#mask-4)"></path>
            <polygon id="Fill-65" fill="#5F5F5F" mask="url(#mask-4)" points="299.669673 59.8539502 297.145658 59.8539502 297.145658 62.8337581 299.99804 62.8337581 299.99804 64.70594 294.994119 64.70594 294.994119 53.6541855 299.802 53.6541855 299.802 55.5214664 297.145658 55.5214664 297.145658 58.0650853 299.669673 58.0650853"></polygon>
        </g>
    </g>
</svg>