<?xml version="1.0" encoding="utf-8"?>
<!-- Generator: Adobe Illustrator 27.3.1, SVG Export Plug-In . SVG Version: 6.00 Build 0)  -->
<svg version="1.1" id="Layer_1" xmlns="http://www.w3.org/2000/svg" xmlns:xlink="http://www.w3.org/1999/xlink" width="405.4" height="311.8"
	 viewBox="0 0 405.4 311.8" style="enable-background:new 0 0 405.4 311.8;" xml:space="preserve">
<style type="text/css">
	.st0{fill:#F68629;}
	.st1{fill:#FFFFFF;}
	.st2{clip-path:url(#SVGID_00000018227756259285568850000015587603091952845461_);fill:#FFFFFF;}
	.st3{clip-path:url(#SVGID_00000036957199593048827870000009987120091202565018_);fill:#FFFFFF;}
	.st4{fill:none;stroke:#FFFFFF;stroke-width:0.4179;stroke-miterlimit:5.2328;}
</style>
<g>
	<path class="st0" d="M215.1,224.8c12.1-31,19-66.6,19.1-104.4c0.1-37.8-6.6-73.4-18.5-104.5H14.6l-0.6,209H215.1L215.1,224.8z"/>
	<path class="st1" d="M207.6,120.6c1.1,2.1,6.6,11,12.6,21.4l9.4,0c-5.9-10.2-9.8-16.9-11.8-18V124c3.7-1.6,7.3-5.1,7.3-10.3
		c0-6.2-3.8-11.4-14.4-11.4l-11.6,0L199,142l8.3,0l0-15.3l0-6l0-11.5l3.5,0c3.9,0,6.1,2.4,6.1,5.4c0,3.4-2.6,6.1-6.1,6.1l-2.5,0
		 M191.6,141.9l0-6.8l-14.7,0l0-10.1l12.7,0l0-6.8l-12.7,0l0-9.3l12.6,0l2.2-6.7l-23-0.1l-0.1,39.8L191.6,141.9L191.6,141.9z
		 M164.8,102.2l-8.4,0l-9,21.3c-1.1,2.7-2,4.9-2.7,7.1h-0.1c-0.8-2.2-1.7-4.8-2.7-7.4l-8-21.1l-9,0l16.2,40l6.2,0L164.8,102.2
		L164.8,102.2z M118,132l3.8,9.7l8.9,0l-16.1-40l-6.3,0l-15.7,39.9l8.1,0l3.7-9.7l2.4-6.6l3-7.8c0.7-1.8,1.2-3.4,1.5-4.8h0.1
		c0.2,1.3,0.8,2.9,1.4,4.9l2.7,7.7L118,132L118,132z M76.2,142.2c-5.7,0-9.8-1.9-12.7-3.8l3.2-6c2.5,1.6,5.5,3.1,9.1,3.1
		c2.9,0,6.2-1.1,6.2-4.1c0-5.2-9.6-6.2-14.4-11.7c-1.5-1.8-2.5-4-2.5-7.1c0-6,4.8-11.3,13.5-11.3c4.2,0,7.7,1.1,10,2.4l-0.1,7.1
		c-3.4-1.8-6.2-2.9-9.5-2.9c-3,0-5.3,1.3-5.3,3.6c0,6.9,17.1,6.3,17,18.8C90.7,137.7,84.3,142.2,76.2,142.2"/>
	<path class="st1" d="M379.2,143.1c7.2,0,12.6-4.1,12.6-10.3c0-11.9-17.6-12.1-17.6-20.9c0-3.9,3.4-5.4,7.2-5.4
		c3.3,0,6.6,1.2,8.7,2.6l0-4.7c-1.7-0.9-4.6-1.9-8.8-2c-7.2,0-11.5,4.2-11.5,9.9c0,3.1,1.1,5.4,2.8,7.2c4.9,5.3,14.4,6.7,14.4,13.7
		c0,4.2-4.3,6-7.9,5.9c-4,0-7.2-1.7-8.7-2.8l-2.1,3.6C370.5,141.4,374,143.1,379.2,143.1 M350.4,143c7.2,0,12.6-4.1,12.6-10.3
		c0-11.9-17.6-12.1-17.6-20.9c0-3.9,3.4-5.4,7.3-5.4c3.3,0,6.6,1.2,8.7,2.6l0-4.7c-1.7-0.9-4.6-1.9-8.8-2c-7.2,0-11.5,4.2-11.5,9.9
		c0,3.1,1.1,5.4,2.8,7.2c4.9,5.3,14.4,6.7,14.4,13.7c0,4.2-4.3,6-7.9,5.9c-4,0-7.2-1.7-8.7-2.8l-2.1,3.6
		C341.7,141.3,345.2,143,350.4,143 M328.4,131.7l4.1,10.6l4.6,0L322,102.4l-2.5,0l-15.3,39.8l4.4,0l3.8-10.6l1.6-3.9l5-13.5
		c0.7-2,1.2-3.4,1.6-4.9h0.1c0.3,1.3,0.8,2.9,1.5,4.9l4.7,13.5L328.4,131.7L328.4,131.7z M301,142.3l0-4.1l-15.1,0l0.1-35.6l-4.4,0
		l-0.1,39.8L301,142.3L301,142.3z M258.9,142.7c-11.7,0-19.8-8.2-19.7-19.9c0-12.4,8.4-20.8,20.8-20.8c4.8,0,9,1.4,11,2.4l0,4.8
		c-2.5-1.3-6.6-3.1-11.3-3.1c-10,0-15.8,6.5-15.9,16.1c0,10.3,6.2,16.4,16.1,16.4c3.7,0,6.1-0.7,7.6-1.6l0-14.1l4.4,0l0,16.6
		C269.7,140.8,264.7,142.8,258.9,142.7"/>
	<path class="st1" d="M142.7,273.7h4.8c2.6,0,3.9-1.9,3.9-3.8c0-1.9-1.3-3.8-3.9-3.8h-6.4v18.6H138V263h9.5c4.7,0,7.1,3.5,7.1,6.9
		c0,3.1-2.1,6-5.8,6.4l7.1,8.4h-4.1L142.7,273.7L142.7,273.7z"/>
	<path class="st1" d="M87,273.7h4.8c2.6,0,3.9-1.9,3.9-3.8c0-1.9-1.3-3.8-3.9-3.8h-6.4v18.6h-3.1V263h9.5c4.7,0,7.1,3.5,7.1,6.9
		c0,3.1-2.1,6-5.8,6.4l7.1,8.4h-4.1L87,273.7L87,273.7z"/>
	<g>
		<defs>
			<rect id="SVGID_1_" x="57" y="249.8" width="121.7" height="48"/>
		</defs>
		<clipPath id="SVGID_00000009568791081778076050000000747559346719975299_">
			<use xlink:href="#SVGID_1_"  style="overflow:visible;"/>
		</clipPath>
		<path style="clip-path:url(#SVGID_00000009568791081778076050000000747559346719975299_);fill:#FFFFFF;" d="M163.6,276.3l3.6-7.1
			l3.6,7.1H163.6L163.6,276.3z M175.2,284.7h3.4l-11.4-22.1l-11.4,22.1h3.4l2.9-5.5h10.2L175.2,284.7L175.2,284.7z"/>
		<path style="clip-path:url(#SVGID_00000009568791081778076050000000747559346719975299_);fill:#FFFFFF;" d="M68.2,265.8
			c-4.4,0-8.1,3.6-8.1,8.1c0,4.5,3.6,8.1,8.1,8.1c4.4,0,8.1-3.6,8.1-8.1C76.3,269.4,72.7,265.8,68.2,265.8L68.2,265.8z M79.5,273.8
			c0,6.2-5,11.3-11.3,11.3c-6.2,0-11.3-5-11.3-11.3c0-6.2,5-11.3,11.3-11.3C74.5,262.6,79.5,267.6,79.5,273.8L79.5,273.8z"/>
		<path style="clip-path:url(#SVGID_00000009568791081778076050000000747559346719975299_);fill:#FFFFFF;" d="M130.6,252.1
			c0.4-0.8,0.1-1.7-0.7-2.1c-0.8-0.4-1.7-0.1-2.1,0.7l-5.9,12.7c0.7,0.3,1.4,0.6,2,1L130.6,252.1L130.6,252.1z"/>
	</g>
	<path class="st1" d="M121.6,255c0.1-0.9-0.5-1.6-1.4-1.7c-0.9-0.1-1.7,0.5-1.7,1.4l-0.5,7.9c0.8,0,1.5,0.1,2.2,0.3L121.6,255
		L121.6,255z"/>
	<path class="st1" d="M114.5,253.1c-0.2-0.9-1-1.4-1.9-1.2c-0.8,0.2-1.4,1-1.2,1.9l2.7,9.4c0.7-0.2,1.4-0.4,2.2-0.5L114.5,253.1
		L114.5,253.1z"/>
	<path class="st1" d="M109.6,258.5c-0.5-0.7-1.4-0.9-2.2-0.5c-0.7,0.5-1,1.4-0.5,2.2l3.7,4.8c0.6-0.5,1.2-0.9,1.9-1.2L109.6,258.5
		L109.6,258.5z"/>
	<path class="st1" d="M104.9,262.3c-0.7-0.5-1.7-0.4-2.2,0.3c-0.5,0.7-0.4,1.7,0.3,2.2l5.1,3.3c0.4-0.6,0.8-1.2,1.3-1.8L104.9,262.3
		L104.9,262.3z"/>
	<path class="st1" d="M104.6,268.2c-0.8-0.3-1.7,0.2-1.9,1c-0.3,0.8,0.2,1.7,1,1.9l3.1,0.5c0.1-0.7,0.4-1.5,0.6-2.1L104.6,268.2
		L104.6,268.2z"/>
	<path class="st1" d="M106.5,273.3l-5.5-0.1c-0.9,0-1.5,0.8-1.5,1.6c0,0.9,0.8,1.6,1.6,1.5l5.5-0.7c-0.1-0.6-0.1-1.1-0.1-1.7
		C106.5,273.7,106.5,273.5,106.5,273.3L106.5,273.3z"/>
	<path class="st1" d="M103.2,278.4c-0.8,0.3-1.2,1.3-0.8,2.1c0.3,0.8,1.2,1.2,2.1,0.8l3.5-2c-0.4-0.6-0.7-1.3-0.9-2.1L103.2,278.4
		L103.2,278.4z"/>
	<g>
		<defs>
			<rect id="SVGID_00000065060968960731449120000006090815017388603320_" x="57" y="249.8" width="121.7" height="48"/>
		</defs>
		<clipPath id="SVGID_00000065764846077935789080000003363172270835493046_">
			<use xlink:href="#SVGID_00000065060968960731449120000006090815017388603320_"  style="overflow:visible;"/>
		</clipPath>
		<path style="clip-path:url(#SVGID_00000065764846077935789080000003363172270835493046_);fill:#FFFFFF;" d="M108.8,280.7l-6.3,5.3
			c-0.7,0.6-0.7,1.6-0.1,2.2c0.6,0.6,1.6,0.7,2.2,0.1l5.7-6C109.8,281.8,109.3,281.3,108.8,280.7L108.8,280.7z"/>
		<path style="clip-path:url(#SVGID_00000065764846077935789080000003363172270835493046_);fill:#FFFFFF;" d="M105,295.6
			c-0.4,0.8-0.1,1.7,0.7,2.1c0.8,0.4,1.7,0.1,2.1-0.7l6-12.6c-0.7-0.3-1.4-0.6-2-1L105,295.6L105,295.6z"/>
	</g>
	<path class="st1" d="M113.9,293.4c-0.1,0.9,0.5,1.6,1.4,1.7c0.9,0.1,1.7-0.5,1.7-1.4l0.6-8.7c-0.8,0-1.5-0.1-2.2-0.3L113.9,293.4
		L113.9,293.4z"/>
	<path class="st1" d="M119.7,288.9c0.2,0.9,1,1.4,1.9,1.2c0.8-0.2,1.4-1,1.2-1.9l-1.3-3.6c-0.7,0.2-1.4,0.4-2.2,0.5L119.7,288.9
		L119.7,288.9z"/>
	<path class="st1" d="M126.6,290.2c0.5,0.7,1.4,0.9,2.2,0.5c0.7-0.5,1-1.4,0.5-2.2l-4.3-5.8c-0.6,0.5-1.2,0.9-1.9,1.2L126.6,290.2
		L126.6,290.2z"/>
	<path class="st1" d="M129.8,284.8c0.7,0.5,1.7,0.4,2.2-0.3c0.5-0.7,0.4-1.7-0.3-2.2l-4.3-2.7c-0.4,0.6-0.8,1.2-1.3,1.8L129.8,284.8
		L129.8,284.8z"/>
	<path class="st1" d="M134.3,277.2l-5.4-1.2c-0.1,0.7-0.4,1.5-0.6,2.1l5.2,2c0.8,0.3,1.7-0.2,1.9-1
		C135.6,278.3,135.1,277.4,134.3,277.2L134.3,277.2z"/>
	<path class="st1" d="M129,274.3l3.7,0.2c0.9,0,1.5-0.8,1.5-1.6c0-0.9-0.8-1.6-1.6-1.5l-3.7,0.6c0.1,0.6,0.1,1.1,0.1,1.7
		C129.1,274,129.1,274.2,129,274.3L129,274.3z"/>
	<path class="st1" d="M134.7,268.3c0.8-0.3,1.2-1.3,0.8-2.1c-0.3-0.8-1.2-1.2-2.1-0.8l-5.8,3c0.4,0.6,0.7,1.3,0.9,2.1L134.7,268.3
		L134.7,268.3z"/>
	<path class="st1" d="M126.7,267l7.3-6.2c0.7-0.6,0.7-1.6,0.1-2.2c-0.6-0.6-1.6-0.7-2.2-0.1l-6.7,6.9
		C125.8,265.9,126.3,266.4,126.7,267L126.7,267z"/>
	<path class="st1" d="M15.2,283.6c0.3,0,0.5-0.2,0.5-0.4l1.8-5.4H25l1.8,5.4c0.1,0.3,0.2,0.4,0.5,0.4h0.6c0.3,0,0.4-0.2,0.4-0.4
		c0,0,0-0.1,0-0.2l-5.8-17.9c-0.1-0.3-0.3-0.5-0.6-0.5h-1.2c-0.3,0-0.5,0.2-0.6,0.5L14.3,283c0,0.1,0,0.2,0,0.2
		c0,0.2,0.2,0.4,0.4,0.4H15.2L15.2,283.6z M19.8,270.8c0.4-1.3,0.9-2.6,1.5-4.8c0.6,2.1,1.1,3.5,1.5,4.8l1.9,5.7h-6.7L19.8,270.8
		L19.8,270.8z M31.8,283.1c0,0.3,0.2,0.5,0.5,0.5h0.6c0.3,0,0.5-0.1,0.5-0.5v-11.4c0-1.2,0-2.7,0-4.6c1,1.8,1.7,3.2,2.5,4.6
		l6.4,11.5c0.1,0.2,0.3,0.4,0.6,0.4h0.8c0.4,0,0.5-0.2,0.5-0.5v-17.9c0-0.3-0.2-0.5-0.5-0.5h-0.6c-0.3,0-0.5,0.1-0.5,0.5v11.3
		c0,1.4,0,2.9,0,4.6c-0.8-1.7-1.7-3.3-2.5-4.7L33.8,265c-0.1-0.2-0.3-0.4-0.6-0.4h-0.8c-0.4,0-0.5,0.2-0.5,0.5V283.1L31.8,283.1z"/>
	<path class="st4" d="M15.2,283.6c0.3,0,0.5-0.2,0.5-0.4l1.8-5.4H25l1.8,5.4c0.1,0.3,0.2,0.4,0.5,0.4h0.6c0.3,0,0.4-0.2,0.4-0.4
		c0,0,0-0.1,0-0.2l-5.8-17.9c-0.1-0.3-0.3-0.5-0.6-0.5h-1.2c-0.3,0-0.5,0.2-0.6,0.5L14.3,283c0,0.1,0,0.2,0,0.2
		c0,0.2,0.2,0.4,0.4,0.4H15.2L15.2,283.6z M19.8,270.8c0.4-1.3,0.9-2.6,1.5-4.8c0.6,2.1,1.1,3.5,1.5,4.8l1.9,5.7h-6.7L19.8,270.8
		L19.8,270.8z M31.8,283.1c0,0.3,0.2,0.5,0.5,0.5h0.6c0.3,0,0.5-0.1,0.5-0.5v-11.4c0-1.2,0-2.7,0-4.6c1,1.8,1.7,3.2,2.5,4.6
		l6.4,11.5c0.1,0.2,0.3,0.4,0.6,0.4h0.8c0.4,0,0.5-0.2,0.5-0.5v-17.9c0-0.3-0.2-0.5-0.5-0.5h-0.6c-0.3,0-0.5,0.1-0.5,0.5v11.3
		c0,1.4,0,2.9,0,4.6c-0.8-1.7-1.7-3.3-2.5-4.7L33.8,265c-0.1-0.2-0.3-0.4-0.6-0.4h-0.8c-0.4,0-0.5,0.2-0.5,0.5V283.1L31.8,283.1z"/>
	<path class="st1" d="M192.4,279c0,3.1,1.8,4.8,5,4.8h2.5c3.2,0,5-1.7,5-4.8v-3.8c0-0.3-0.2-0.5-0.5-0.5h-5.2
		c-0.3,0-0.5,0.2-0.5,0.5v0.4c0,0.3,0.2,0.5,0.5,0.5h4.1v3c0,2.3-1.2,3.4-3.4,3.4h-2.5c-2.2,0-3.4-1.2-3.4-3.4v-9.7
		c0-2.3,1.2-3.4,3.4-3.4h2.5c2.2,0,3.4,1.2,3.4,3.4v0.9c0,0.3,0.2,0.5,0.5,0.5h0.6c0.3,0,0.5-0.2,0.5-0.5v-0.9c0-3.1-1.8-4.8-5-4.8
		h-2.5c-3.1,0-5,1.7-5,4.8V279L192.4,279z M209.5,283.1c0,0.3,0.1,0.5,0.5,0.5h0.6c0.3,0,0.5-0.1,0.5-0.5v-8.3h4.7
		c2.4,0,3.5,1.1,3.5,3.3v4.9c0,0.3,0.2,0.5,0.5,0.5h0.6c0.3,0,0.5-0.1,0.5-0.5v-4.9c0-2.2-0.9-3.6-2.8-4.1c1.9-0.5,2.8-1.9,2.8-4v-1
		c0-2.9-1.6-4.5-5-4.5H210c-0.3,0-0.5,0.1-0.5,0.5V283.1L209.5,283.1z M211,273.5V266h4.7c2.4,0,3.5,1,3.5,3.2v1
		c0,2.2-1.1,3.3-3.5,3.3H211L211,273.5z M229.9,282.4c-2.4,0-3.6-1.2-3.6-3.4v-9.7c0-2.3,1.1-3.4,3.6-3.4h2.3c2.4,0,3.6,1.2,3.6,3.4
		v9.7c0,2.3-1.2,3.4-3.6,3.4H229.9L229.9,282.4z M224.8,279c0,3.1,1.8,4.8,5.1,4.8h2.3c3.4,0,5.1-1.7,5.1-4.8v-9.7
		c0-3.1-1.8-4.8-5.1-4.8h-2.3c-3.4,0-5.1,1.7-5.1,4.8V279L224.8,279z M241.8,279.1c0,3,1.8,4.7,5.1,4.7h1.9c3.4,0,5.1-1.7,5.1-4.7
		v-14c0-0.3-0.1-0.5-0.5-0.5h-0.6c-0.3,0-0.5,0.1-0.5,0.5v14c0,2.2-1.2,3.3-3.6,3.3h-1.9c-2.4,0-3.6-1.2-3.6-3.3v-14
		c0-0.3-0.2-0.5-0.5-0.5h-0.6c-0.3,0-0.5,0.1-0.5,0.5V279.1L241.8,279.1z M258.7,283.2c0,0.2,0.2,0.4,0.4,0.4h0.7
		c0.2,0,0.4-0.2,0.4-0.4v-7.1h4.1c3.4,0,5-1.6,5-4.6v-2.2c0-3-1.6-4.6-5-4.6h-5.2c-0.2,0-0.4,0.2-0.4,0.4V283.2L258.7,283.2z
		 M260.2,274.8V266h4.1c2.4,0,3.5,1,3.5,3.3v2.2c0,2.2-1,3.2-3.5,3.2H260.2L260.2,274.8z M277.8,279c0,3.1,1.8,4.8,5,4.8h2.4
		c3.2,0,5-1.7,5-4.8v-1c0-0.3-0.2-0.5-0.5-0.5h-0.6c-0.3,0-0.5,0.2-0.5,0.5v1c0,2.3-1.2,3.4-3.4,3.4h-2.4c-2.2,0-3.4-1.2-3.4-3.4
		v-9.7c0-2.3,1.2-3.4,3.4-3.4h2.4c2.2,0,3.4,1.2,3.4,3.4v1c0,0.3,0.2,0.5,0.5,0.5h0.6c0.3,0,0.5-0.2,0.5-0.5v-1c0-3.1-1.8-4.8-5-4.8
		h-2.4c-3.1,0-5,1.7-5,4.8V279L277.8,279z M299.7,282.4c-2.4,0-3.6-1.2-3.6-3.4v-9.7c0-2.3,1.1-3.4,3.6-3.4h2.3
		c2.4,0,3.6,1.2,3.6,3.4v9.7c0,2.3-1.2,3.4-3.6,3.4H299.7L299.7,282.4z M294.5,279c0,3.1,1.8,4.8,5.1,4.8h2.3c3.4,0,5.1-1.7,5.1-4.8
		v-9.7c0-3.1-1.8-4.8-5.1-4.8h-2.3c-3.4,0-5.1,1.7-5.1,4.8V279L294.5,279z M312.7,283.6c0.3,0,0.5-0.1,0.5-0.5v-11.5
		c0-1.4,0-2.8,0-4.6c0.9,1.8,1.6,3.2,2.4,4.7l3.4,6.1c0.1,0.3,0.4,0.4,0.7,0.4c0.3,0,0.5-0.2,0.7-0.4l3.4-6.1
		c0.7-1.3,1.6-2.9,2.4-4.7c0,1.8,0,3.4,0,4.6v11.5c0,0.3,0.2,0.5,0.5,0.5h0.6c0.3,0,0.5-0.1,0.5-0.5v-17.9c0-0.4-0.2-0.6-0.5-0.6
		h-0.8c-0.4,0-0.5,0.2-0.7,0.4L322,272c-0.9,1.8-1.6,3-2.3,4.4c-0.7-1.4-1.4-2.7-2.3-4.4l-3.6-6.8c-0.2-0.3-0.3-0.4-0.7-0.4h-0.8
		c-0.3,0-0.5,0.2-0.5,0.6v17.9c0,0.3,0.2,0.5,0.5,0.5H312.7L312.7,283.6z M332.6,283.2c0,0.2,0.2,0.4,0.4,0.4h0.7
		c0.2,0,0.4-0.2,0.4-0.4v-7.1h4.1c3.4,0,5-1.6,5-4.6v-2.2c0-3-1.6-4.6-5-4.6H333c-0.2,0-0.4,0.2-0.4,0.4V283.2L332.6,283.2z
		 M334.1,274.8V266h4.1c2.4,0,3.5,1,3.5,3.3v2.2c0,2.2-1,3.2-3.5,3.2H334.1L334.1,274.8z M345.2,283.6c0.3,0,0.5-0.2,0.5-0.4
		l1.8-5.4h7.4l1.8,5.4c0.1,0.3,0.2,0.4,0.5,0.4h0.6c0.3,0,0.4-0.2,0.4-0.4c0,0,0-0.1,0-0.2l-5.8-17.9c-0.1-0.3-0.3-0.5-0.6-0.5h-1.2
		c-0.3,0-0.5,0.2-0.6,0.5l-5.8,17.9c0,0.1,0,0.2,0,0.2c0,0.2,0.2,0.4,0.4,0.4H345.2L345.2,283.6z M349.8,270.8
		c0.4-1.3,0.9-2.6,1.5-4.8c0.6,2.1,1.1,3.5,1.5,4.8l1.9,5.7h-6.7L349.8,270.8L349.8,270.8z M361.8,283.1c0,0.3,0.2,0.5,0.5,0.5h0.6
		c0.3,0,0.5-0.1,0.5-0.5v-11.4c0-1.2,0-2.7,0-4.6c1,1.8,1.7,3.2,2.5,4.6l6.4,11.5c0.1,0.2,0.3,0.4,0.6,0.4h0.8
		c0.4,0,0.5-0.2,0.5-0.5v-17.9c0-0.3-0.2-0.5-0.5-0.5h-0.6c-0.3,0-0.5,0.1-0.5,0.5v11.3c0,1.4,0,2.9,0,4.6c-0.8-1.7-1.7-3.3-2.5-4.7
		l-6.4-11.4c-0.1-0.2-0.3-0.4-0.6-0.4h-0.8c-0.4,0-0.5,0.2-0.5,0.5V283.1L361.8,283.1z M383,283.1c0,0.3,0.1,0.5,0.5,0.5h0.6
		c0.3,0,0.5-0.1,0.5-0.5v-6.3l5.7-11.5c0-0.1,0.1-0.2,0.1-0.3c0-0.2-0.1-0.4-0.4-0.4h-0.6c-0.3,0-0.5,0.1-0.6,0.4l-2.9,6
		c-0.6,1.3-1.3,2.6-2,4.2c-0.7-1.6-1.4-2.9-2-4.2l-2.9-6c-0.1-0.2-0.2-0.3-0.6-0.3h-0.6c-0.3,0-0.4,0.2-0.4,0.4c0,0.1,0,0.1,0.1,0.2
		l5.7,11.5V283.1L383,283.1z"/>
	<path class="st4" d="M192.4,279c0,3.1,1.8,4.8,5,4.8h2.5c3.2,0,5-1.7,5-4.8v-3.8c0-0.3-0.2-0.5-0.5-0.5h-5.2
		c-0.3,0-0.5,0.2-0.5,0.5v0.4c0,0.3,0.2,0.5,0.5,0.5h4.1v3c0,2.3-1.2,3.4-3.4,3.4h-2.5c-2.2,0-3.4-1.2-3.4-3.4v-9.7
		c0-2.3,1.2-3.4,3.4-3.4h2.5c2.2,0,3.4,1.2,3.4,3.4v0.9c0,0.3,0.2,0.5,0.5,0.5h0.6c0.3,0,0.5-0.2,0.5-0.5v-0.9c0-3.1-1.8-4.8-5-4.8
		h-2.5c-3.1,0-5,1.7-5,4.8V279L192.4,279z M209.5,283.1c0,0.3,0.1,0.5,0.5,0.5h0.6c0.3,0,0.5-0.1,0.5-0.5v-8.3h4.7
		c2.4,0,3.5,1.1,3.5,3.3v4.9c0,0.3,0.2,0.5,0.5,0.5h0.6c0.3,0,0.5-0.1,0.5-0.5v-4.9c0-2.2-0.9-3.6-2.8-4.1c1.9-0.5,2.8-1.9,2.8-4v-1
		c0-2.9-1.6-4.5-5-4.5H210c-0.3,0-0.5,0.1-0.5,0.5V283.1L209.5,283.1z M211,273.5V266h4.7c2.4,0,3.5,1,3.5,3.2v1
		c0,2.2-1.1,3.3-3.5,3.3H211L211,273.5z M229.9,282.4c-2.4,0-3.6-1.2-3.6-3.4v-9.7c0-2.3,1.1-3.4,3.6-3.4h2.3c2.4,0,3.6,1.2,3.6,3.4
		v9.7c0,2.3-1.2,3.4-3.6,3.4H229.9L229.9,282.4z M224.8,279c0,3.1,1.8,4.8,5.1,4.8h2.3c3.4,0,5.1-1.7,5.1-4.8v-9.7
		c0-3.1-1.8-4.8-5.1-4.8h-2.3c-3.4,0-5.1,1.7-5.1,4.8V279L224.8,279z M241.8,279.1c0,3,1.8,4.7,5.1,4.7h1.9c3.4,0,5.1-1.7,5.1-4.7
		v-14c0-0.3-0.1-0.5-0.5-0.5h-0.6c-0.3,0-0.5,0.1-0.5,0.5v14c0,2.2-1.2,3.3-3.6,3.3h-1.9c-2.4,0-3.6-1.2-3.6-3.3v-14
		c0-0.3-0.2-0.5-0.5-0.5h-0.6c-0.3,0-0.5,0.1-0.5,0.5V279.1L241.8,279.1z M258.7,283.2c0,0.2,0.2,0.4,0.4,0.4h0.7
		c0.2,0,0.4-0.2,0.4-0.4v-7.1h4.1c3.4,0,5-1.6,5-4.6v-2.2c0-3-1.6-4.6-5-4.6h-5.2c-0.2,0-0.4,0.2-0.4,0.4V283.2L258.7,283.2z
		 M260.2,274.8V266h4.1c2.4,0,3.5,1,3.5,3.3v2.2c0,2.2-1,3.2-3.5,3.2H260.2L260.2,274.8z M277.8,279c0,3.1,1.8,4.8,5,4.8h2.4
		c3.2,0,5-1.7,5-4.8v-1c0-0.3-0.2-0.5-0.5-0.5h-0.6c-0.3,0-0.5,0.2-0.5,0.5v1c0,2.3-1.2,3.4-3.4,3.4h-2.4c-2.2,0-3.4-1.2-3.4-3.4
		v-9.7c0-2.3,1.2-3.4,3.4-3.4h2.4c2.2,0,3.4,1.2,3.4,3.4v1c0,0.3,0.2,0.5,0.5,0.5h0.6c0.3,0,0.5-0.2,0.5-0.5v-1c0-3.1-1.8-4.8-5-4.8
		h-2.4c-3.1,0-5,1.7-5,4.8V279L277.8,279z M299.7,282.4c-2.4,0-3.6-1.2-3.6-3.4v-9.7c0-2.3,1.1-3.4,3.6-3.4h2.3
		c2.4,0,3.6,1.2,3.6,3.4v9.7c0,2.3-1.2,3.4-3.6,3.4H299.7L299.7,282.4z M294.5,279c0,3.1,1.8,4.8,5.1,4.8h2.3c3.4,0,5.1-1.7,5.1-4.8
		v-9.7c0-3.1-1.8-4.8-5.1-4.8h-2.3c-3.4,0-5.1,1.7-5.1,4.8V279L294.5,279z M312.7,283.6c0.3,0,0.5-0.1,0.5-0.5v-11.5
		c0-1.4,0-2.8,0-4.6c0.9,1.8,1.6,3.2,2.4,4.7l3.4,6.1c0.1,0.3,0.4,0.4,0.7,0.4c0.3,0,0.5-0.2,0.7-0.4l3.4-6.1
		c0.7-1.3,1.6-2.9,2.4-4.7c0,1.8,0,3.4,0,4.6v11.5c0,0.3,0.2,0.5,0.5,0.5h0.6c0.3,0,0.5-0.1,0.5-0.5v-17.9c0-0.4-0.2-0.6-0.5-0.6
		h-0.8c-0.4,0-0.5,0.2-0.7,0.4L322,272c-0.9,1.8-1.6,3-2.3,4.4c-0.7-1.4-1.4-2.7-2.3-4.4l-3.6-6.8c-0.2-0.3-0.3-0.4-0.7-0.4h-0.8
		c-0.3,0-0.5,0.2-0.5,0.6v17.9c0,0.3,0.2,0.5,0.5,0.5H312.7L312.7,283.6z M332.6,283.2c0,0.2,0.2,0.4,0.4,0.4h0.7
		c0.2,0,0.4-0.2,0.4-0.4v-7.1h4.1c3.4,0,5-1.6,5-4.6v-2.2c0-3-1.6-4.6-5-4.6H333c-0.2,0-0.4,0.2-0.4,0.4V283.2L332.6,283.2z
		 M334.1,274.8V266h4.1c2.4,0,3.5,1,3.5,3.3v2.2c0,2.2-1,3.2-3.5,3.2H334.1L334.1,274.8z M345.2,283.6c0.3,0,0.5-0.2,0.5-0.4
		l1.8-5.4h7.4l1.8,5.4c0.1,0.3,0.2,0.4,0.5,0.4h0.6c0.3,0,0.4-0.2,0.4-0.4c0,0,0-0.1,0-0.2l-5.8-17.9c-0.1-0.3-0.3-0.5-0.6-0.5h-1.2
		c-0.3,0-0.5,0.2-0.6,0.5l-5.8,17.9c0,0.1,0,0.2,0,0.2c0,0.2,0.2,0.4,0.4,0.4H345.2L345.2,283.6z M349.8,270.8
		c0.4-1.3,0.9-2.6,1.5-4.8c0.6,2.1,1.1,3.5,1.5,4.8l1.9,5.7h-6.7L349.8,270.8L349.8,270.8z M361.8,283.1c0,0.3,0.2,0.5,0.5,0.5h0.6
		c0.3,0,0.5-0.1,0.5-0.5v-11.4c0-1.2,0-2.7,0-4.6c1,1.8,1.7,3.2,2.5,4.6l6.4,11.5c0.1,0.2,0.3,0.4,0.6,0.4h0.8
		c0.4,0,0.5-0.2,0.5-0.5v-17.9c0-0.3-0.2-0.5-0.5-0.5h-0.6c-0.3,0-0.5,0.1-0.5,0.5v11.3c0,1.4,0,2.9,0,4.6c-0.8-1.7-1.7-3.3-2.5-4.7
		l-6.4-11.4c-0.1-0.2-0.3-0.4-0.6-0.4h-0.8c-0.4,0-0.5,0.2-0.5,0.5V283.1L361.8,283.1z M383,283.1c0,0.3,0.1,0.5,0.5,0.5h0.6
		c0.3,0,0.5-0.1,0.5-0.5v-6.3l5.7-11.5c0-0.1,0.1-0.2,0.1-0.3c0-0.2-0.1-0.4-0.4-0.4h-0.6c-0.3,0-0.5,0.1-0.6,0.4l-2.9,6
		c-0.6,1.3-1.3,2.6-2,4.2c-0.7-1.6-1.4-2.9-2-4.2l-2.9-6c-0.1-0.2-0.2-0.3-0.6-0.3h-0.6c-0.3,0-0.4,0.2-0.4,0.4c0,0.1,0,0.1,0.1,0.2
		l5.7,11.5V283.1L383,283.1z"/>
</g>
</svg>
